<?xml version="1.0" standalone="no"?>
<!DOCTYPE svg PUBLIC "-//W3C//DTD SVG 20010904//EN"
 "http://www.w3.org/TR/2001/REC-SVG-20010904/DTD/svg10.dtd">
<svg version="1.0" xmlns="http://www.w3.org/2000/svg"
 width="300.000000pt" height="150.000000pt" viewBox="0 0 300.000000 150.000000"
 preserveAspectRatio="xMidYMid meet">
<metadata>
Created by potrace 1.10, written by Peter Selinger 2001-2011
</metadata>
<g transform="translate(0.000000,150.000000) scale(0.100000,-0.100000)"
fill="#000000" stroke="none">
<path d="M880 1482 c-67 -5 -83 -11 -70 -27 17 -20 45 -19 113 5 63 22 81 25
72 10 -3 -5 -17 -10 -30 -10 -40 0 -37 -17 4 -24 35 -5 39 -8 37 -36 0 -16 -4
-30 -8 -30 -5 0 -8 -16 -8 -35 0 -25 6 -37 21 -46 19 -9 25 -7 43 16 21 26 57
44 139 68 20 6 37 16 37 23 0 7 7 14 15 18 8 3 15 14 15 25 0 12 10 23 28 29
25 9 22 10 -28 15 -52 6 -305 5 -380 -1z m324 -46 c-3 -7 -37 -26 -77 -42 -39
-16 -75 -30 -79 -32 -5 -2 -8 14 -8 37 0 39 1 40 38 44 91 9 131 7 126 -7z"/>
<path d="M674 1445 c-5 -11 -11 -12 -25 -4 -11 5 -30 7 -42 3 -21 -7 -21 -7
-2 -15 11 -4 35 -8 54 -8 25 -1 32 3 28 13 -3 8 -1 17 6 20 9 3 8 5 -1 5 -7 1
-15 -6 -18 -14z"/>
<path d="M2035 1441 c-3 -6 -18 -11 -33 -11 -39 0 -73 -11 -66 -21 5 -8 -9
-13 -28 -10 -5 0 -8 -3 -8 -9 0 -5 6 -10 14 -10 9 0 12 -7 9 -20 -3 -11 -10
-20 -15 -20 -6 0 -8 6 -5 13 3 7 -3 24 -13 38 -15 19 -21 21 -31 12 -10 -10
-9 -16 7 -29 19 -15 19 -16 -1 -8 -30 11 -108 6 -133 -10 -6 -3 -12 -1 -14 5
-2 7 -15 1 -31 -15 -27 -27 -47 -30 -54 -9 -3 7 8 13 24 15 18 3 23 6 13 10
-96 36 -156 34 -190 -9 -11 -15 -30 -31 -42 -37 -26 -13 -31 -26 -19 -45 8
-12 12 -13 26 -1 14 11 17 10 22 -8 3 -12 11 -22 19 -22 17 0 37 37 28 51 -8
13 25 49 45 49 13 -1 13 -3 -3 -15 -28 -21 -14 -43 24 -37 23 3 31 1 26 -7 -4
-6 -14 -11 -22 -11 -8 0 -14 -5 -14 -11 0 -5 -4 -8 -9 -4 -6 3 -14 -3 -20 -13
-12 -23 -67 -28 -75 -7 -7 18 -26 20 -27 3 -1 -19 -64 -69 -89 -71 -24 -2 -25
-4 -5 -24 21 -21 10 -33 -31 -33 -32 0 -34 -2 -34 -34 0 -32 13 -46 41 -46 5
0 28 19 49 43 22 23 40 38 40 34 0 -4 8 -3 18 2 23 12 85 -45 63 -58 -8 -6 -9
-11 -3 -15 6 -3 18 4 26 16 15 21 15 23 -8 35 -22 12 -43 43 -28 43 14 -1 58
-45 72 -72 15 -32 35 -38 27 -9 -7 29 19 33 32 5 9 -20 18 -24 51 -24 45 0 44
1 30 -36 -10 -24 -14 -26 -53 -21 -23 3 -52 9 -64 13 -17 5 -23 2 -23 -10 0
-20 -1 -20 -50 1 -30 13 -40 23 -40 41 0 22 -2 23 -47 16 -27 -3 -54 -11 -60
-16 -7 -6 -20 -8 -28 -4 -18 6 -55 -27 -55 -49 0 -8 -8 -19 -19 -24 -33 -18
-53 -62 -56 -123 -3 -62 -3 -62 58 -125 12 -13 28 -21 37 -19 45 13 120 17
120 7 0 -6 9 -11 20 -11 17 0 20 -6 18 -32 -1 -18 5 -44 14 -58 24 -38 30 -80
17 -111 -11 -29 -6 -53 36 -169 8 -19 16 -42 18 -52 13 -39 137 27 137 73 0 9
7 20 16 23 11 4 15 14 11 32 -3 20 2 30 25 47 29 22 30 23 24 87 l-7 65 46 54
c45 53 75 101 75 120 0 6 -13 6 -36 -1 -20 -5 -37 -8 -38 -6 -1 2 -13 19 -27
38 -51 69 -103 189 -65 150 18 -19 63 -97 77 -132 14 -37 36 -35 95 5 64 43
74 61 49 85 -15 14 -24 16 -37 8 -14 -8 -22 -4 -42 19 -30 35 -18 57 14 25 12
-12 28 -19 35 -16 8 3 17 1 20 -4 3 -5 26 -12 52 -16 25 -4 54 -15 65 -26 11
-11 22 -17 25 -14 3 3 18 -29 32 -72 21 -59 31 -76 44 -74 10 2 17 -4 17 -13
0 -8 5 -15 10 -15 15 0 12 30 -3 36 -22 8 -6 67 30 108 42 47 68 47 84 1 10
-26 17 -34 30 -30 14 5 18 -3 24 -37 9 -54 35 -116 52 -122 21 -8 15 15 -13
55 -14 21 -24 46 -22 56 3 16 7 15 31 -9 28 -28 28 -28 48 -9 18 16 19 22 9
43 -7 12 -19 31 -27 40 -17 19 -10 38 14 38 9 0 13 -6 9 -15 -3 -8 -1 -15 4
-15 6 0 10 6 10 13 0 6 14 20 30 29 17 10 37 32 45 50 12 31 12 35 -12 67 -21
27 -23 35 -12 42 11 7 9 9 -8 9 -28 0 -37 14 -18 30 11 9 15 9 15 1 0 -7 5 -9
10 -6 12 7 49 -33 50 -52 0 -19 20 -16 27 4 4 11 -1 21 -15 31 -17 11 -19 18
-11 33 5 10 16 19 23 19 21 0 26 51 9 88 -12 25 -21 32 -44 32 -32 0 -37 15
-16 45 11 15 22 17 55 11 33 -5 40 -3 36 8 -7 17 12 31 22 15 4 -8 9 -7 15 2
13 22 23 1 11 -25 -9 -21 -6 -28 24 -57 l34 -33 0 32 c0 21 -6 35 -20 42 -25
13 -17 30 13 30 12 0 31 7 41 15 17 13 18 15 3 15 -9 0 -17 5 -17 10 0 13 12
13 44 0 20 -7 26 -6 26 3 0 14 -170 54 -187 44 -4 -2 -63 3 -130 12 -68 10
-123 14 -123 11 0 -9 -60 -5 -90 6 -14 5 -54 9 -89 8 -36 -1 -58 2 -50 7 18
11 11 16 -37 24 -26 4 -44 2 -49 -4z m75 -51 c28 -15 156 -33 220 -32 67 2
191 -15 204 -28 7 -7 4 -10 -7 -10 -26 0 -67 -45 -67 -73 0 -14 14 -36 35 -56
19 -17 35 -37 35 -44 0 -20 -22 -37 -47 -37 -13 0 -35 -11 -49 -25 l-25 -25
26 -49 c35 -70 33 -89 -12 -108 -49 -19 -73 -41 -73 -65 0 -26 -9 -23 -55 21
-58 57 -86 58 -142 5 l-38 -36 -15 24 c-37 57 -78 82 -161 98 -31 6 -65 17
-75 25 -18 13 -18 14 5 39 l23 25 -17 56 c-12 36 -27 63 -42 72 -22 15 -26 14
-54 -6 -29 -22 -30 -22 -57 -3 -36 26 -88 18 -128 -19 l-30 -29 -34 25 c-27
20 -41 24 -67 19 -18 -3 -33 -2 -33 3 0 20 26 33 67 33 33 0 50 7 78 31 19 17
38 42 41 55 5 18 11 23 23 19 10 -3 38 2 62 10 64 23 180 36 197 23 10 -9 22
-3 50 25 20 19 48 37 62 40 47 8 81 7 100 -3z m-413 -254 c-3 -8 5 -19 19 -26
39 -21 28 -29 -36 -26 -69 2 -76 7 -58 35 14 24 34 27 42 9 3 -9 8 -8 16 5 13
20 24 23 17 3z m124 -15 c-10 -7 -8 -12 9 -24 12 -8 19 -20 16 -26 -4 -5 -2
-12 4 -16 17 -11 11 -25 -10 -25 -11 0 -23 8 -26 18 -3 9 -12 30 -21 45 -14
26 -13 29 4 42 12 9 21 10 28 4 6 -7 5 -13 -4 -18z m-17 -146 c-23 -32 -16
-61 21 -93 31 -28 33 -33 19 -47 -26 -25 -41 -17 -73 39 -16 30 -35 57 -41 61
-12 8 -3 103 13 123 7 9 17 3 42 -25 29 -34 31 -40 19 -58z m-344 -16 c37 -25
52 -30 85 -26 77 11 92 2 129 -77 18 -39 49 -89 69 -110 20 -21 37 -45 37 -52
0 -7 -13 -28 -30 -47 -40 -46 -53 -84 -45 -133 5 -34 2 -46 -18 -70 -13 -16
-27 -41 -30 -55 -10 -40 -51 -94 -73 -97 -22 -3 -27 5 -58 100 -10 32 -12 57
-6 77 8 29 3 62 -18 126 -6 17 -14 43 -19 60 -5 16 -23 40 -43 53 -30 20 -42
22 -96 17 -59 -7 -61 -6 -86 23 -36 44 -29 108 21 174 56 73 111 85 181 37z"/>
<path d="M737 1424 c3 -8 -2 -11 -15 -7 -11 2 -23 0 -27 -6 -4 -8 5 -10 31 -7
21 2 40 8 42 14 1 5 22 8 45 6 35 -4 38 -3 19 6 -33 14 -101 10 -95 -6z"/>
<path d="M535 1405 c-20 -16 -20 -16 3 -12 14 3 22 0 22 -9 0 -19 94 -12 98 8
1 7 -7 14 -20 15 -13 1 -36 5 -53 8 -20 4 -36 1 -50 -10z"/>
<path d="M765 1400 c-3 -5 -4 -14 -1 -19 3 -5 0 -14 -8 -20 -11 -9 -15 -6 -20
15 -7 25 -8 26 -26 9 -11 -10 -20 -15 -20 -10 0 4 -6 2 -14 -4 -9 -7 -37 -9
-82 -5 -38 3 -100 7 -139 8 -38 2 -96 6 -127 10 -57 7 -138 -8 -138 -26 0 -4
-11 -8 -24 -8 -29 0 -46 -20 -19 -21 11 0 6 -5 -12 -11 -48 -17 -60 -30 -41
-43 12 -10 5 -15 -40 -29 -31 -10 -53 -20 -51 -23 7 -6 65 12 127 40 78 35
158 28 147 -13 -3 -11 -1 -20 4 -20 17 0 2 -88 -20 -115 -21 -28 -30 -99 -12
-109 5 -3 12 -22 15 -42 9 -43 26 -84 37 -84 4 0 1 16 -7 35 -7 19 -14 42 -14
52 0 20 59 -94 60 -115 0 -15 58 -52 83 -52 24 0 64 -27 106 -70 21 -22 35
-30 38 -22 3 6 9 10 14 6 14 -8 10 -57 -6 -78 -8 -11 -15 -32 -15 -46 0 -37
53 -131 88 -157 28 -21 29 -24 36 -140 5 -75 13 -126 22 -140 8 -13 10 -23 5
-23 -16 0 18 -73 45 -97 14 -13 37 -23 52 -23 l27 0 -25 20 c-21 16 -25 27
-25 77 -1 59 6 74 38 86 19 7 22 22 7 32 -17 11 -11 23 9 18 14 -3 23 4 35 28
9 17 16 40 16 50 0 11 14 26 33 35 40 21 44 27 52 83 4 25 13 54 21 65 8 11
14 28 14 37 0 20 -41 49 -69 49 -11 0 -23 5 -26 10 -3 6 -14 10 -23 10 -9 0
-26 17 -37 37 -11 21 -29 39 -40 41 -11 2 -31 14 -45 27 -14 13 -41 25 -60 27
-19 3 -43 8 -52 12 -10 5 -23 1 -36 -12 -13 -13 -28 -18 -50 -14 -29 4 -32 8
-32 38 0 30 -3 34 -25 34 -25 0 -25 0 -10 30 15 28 14 30 -4 30 -10 0 -21 -7
-25 -15 -7 -19 -45 -19 -52 0 -10 25 6 84 24 94 9 5 38 12 64 16 39 6 49 4 53
-9 15 -48 19 -50 23 -14 2 29 11 44 37 64 19 14 37 34 40 43 3 10 18 24 33 32
15 8 33 21 39 31 8 10 26 16 48 15 19 -1 41 5 48 12 10 10 8 12 -8 9 -15 -2
-19 2 -17 15 3 15 -1 18 -20 12 -16 -4 -19 -3 -8 3 8 5 34 12 58 15 41 5 43 4
27 -13 -15 -16 -14 -18 10 -22 25 -5 49 12 27 20 -7 2 -9 15 -6 31 4 20 1 30
-10 34 -9 4 -16 18 -16 34 0 21 -3 24 -12 15 -16 -16 -28 -15 -28 2 0 14 -21
26 -45 26 -8 0 -19 -16 -26 -35 -7 -19 -21 -37 -30 -40 -9 -3 -19 -15 -22 -25
-3 -11 -10 -20 -17 -20 -7 0 -9 8 -5 21 5 16 1 22 -24 32 -50 19 -46 34 20 68
34 17 58 25 54 20 -3 -7 3 -11 15 -11 12 0 19 4 15 10 -9 15 34 52 58 48 30
-4 28 -30 -3 -39 -14 -4 -19 -7 -12 -8 7 -1 21 -8 30 -17 10 -10 18 -12 20 -6
2 6 10 8 19 5 12 -5 14 -1 8 18 -7 20 -6 22 6 12 9 -7 20 -9 29 -3 12 8 12 10
-3 16 -9 3 -17 11 -17 16 0 21 -36 37 -82 38 -26 0 -50 -4 -53 -10z m-286 -66
c73 -2 136 -5 138 -8 3 -2 -3 -16 -12 -29 -12 -19 -14 -31 -6 -45 13 -24 88
-92 101 -92 6 0 31 21 56 46 35 34 49 43 58 34 8 -8 6 -15 -9 -25 -31 -21
-122 -104 -176 -161 -46 -48 -54 -52 -109 -57 -68 -8 -104 -27 -126 -68 -19
-37 -28 -36 -47 4 -9 17 -27 47 -41 66 -31 41 -32 51 -9 94 41 79 34 165 -17
213 -35 33 -23 48 30 38 19 -3 95 -8 169 -10z m285 -666 c28 -18 62 -46 77
-62 14 -16 45 -37 70 -46 31 -13 44 -23 42 -36 -4 -53 -29 -113 -59 -144 -18
-19 -37 -44 -41 -55 -14 -35 -98 -145 -108 -141 -5 1 -15 55 -22 120 -11 113
-12 118 -47 157 -20 22 -46 60 -58 84 -20 42 -21 46 -6 82 9 21 19 46 22 56 9
29 72 22 130 -15z"/>
<path d="M1203 1336 c2 -6 16 -11 32 -11 16 0 30 5 32 11 2 6 -12 10 -32 10
-20 0 -34 -4 -32 -10z"/>
<path d="M1325 1260 c-4 -6 -2 -17 4 -23 5 -7 8 -22 5 -34 -5 -18 -2 -20 20
-16 31 6 32 11 9 43 -10 14 -16 27 -15 30 2 2 -1 6 -6 8 -6 2 -13 -2 -17 -8z"/>
<path d="M1286 1214 c-8 -21 -3 -26 18 -18 9 3 16 12 16 20 0 19 -26 18 -34
-2z"/>
<path d="M540 871 c0 -5 8 -7 18 -4 10 2 24 -3 31 -11 8 -9 23 -16 35 -16 21
1 21 1 -3 20 -23 20 -81 28 -81 11z"/>
<path d="M642 835 c-11 -13 -8 -15 18 -15 21 0 30 4 28 13 -7 18 -31 19 -46 2z"/>
<path d="M2526 815 c-8 -22 2 -42 25 -48 22 -6 26 8 5 16 -9 4 -12 14 -9 26 6
24 -12 29 -21 6z"/>
<path d="M2560 750 c-13 -9 -7 -14 13 -11 14 2 7 -17 -10 -23 -14 -6 -14 -8 3
-20 16 -12 20 -12 27 -1 8 15 -1 65 -12 65 -3 0 -13 -5 -21 -10z"/>
<path d="M2467 664 c-30 -28 -36 -39 -31 -59 5 -19 13 -25 34 -25 26 0 41 22
45 65 0 6 4 16 8 23 8 12 1 32 -11 32 -4 0 -24 -16 -45 -36z"/>
<path d="M2290 682 c0 -4 11 -19 25 -32 14 -13 25 -29 25 -37 0 -24 54 -71 95
-81 35 -9 112 -16 153 -13 6 1 12 5 12 11 0 5 -15 7 -33 5 -19 -3 -62 1 -98 9
-49 10 -65 17 -67 32 -6 31 -112 132 -112 106z"/>
<path d="M2537 633 c-4 -3 -7 -22 -6 -42 0 -29 2 -32 9 -16 7 17 9 17 9 3 1
-10 6 -18 12 -18 12 0 1 43 -12 48 -18 7 -8 23 10 17 11 -3 22 -1 26 5 7 11
-37 14 -48 3z"/>
<path d="M2640 614 c0 -11 29 -34 55 -44 17 -7 25 -15 22 -25 -7 -17 31 -31
46 -16 7 7 18 4 35 -10 31 -24 42 -17 17 11 -10 11 -15 20 -10 20 13 0 -41 39
-68 49 -17 7 -28 6 -36 -2 -10 -9 -15 -8 -25 6 -12 16 -36 24 -36 11z"/>
<path d="M2633 478 c-9 -10 -22 -17 -28 -14 -7 2 -29 -11 -50 -30 -21 -18 -53
-38 -72 -44 -23 -8 -33 -18 -34 -33 -1 -12 -3 -38 -4 -57 -1 -19 -5 -43 -9
-53 -8 -17 -5 -18 30 -11 22 3 44 10 49 14 23 18 81 22 94 6 7 -8 19 -12 26
-10 9 4 15 -4 17 -23 3 -25 6 -28 41 -27 30 1 44 9 72 40 59 68 62 85 28 162
-17 37 -34 76 -38 87 -7 17 -9 15 -15 -13 -11 -47 -23 -56 -45 -32 -14 15 -15
23 -6 34 19 23 -35 28 -56 4z m47 -69 c16 -12 36 -19 44 -16 19 8 46 -28 46
-61 0 -30 -34 -79 -61 -87 -14 -5 -30 3 -54 24 -43 38 -75 46 -116 32 -45 -15
-49 -14 -49 14 0 25 32 52 114 97 39 23 41 22 76 -3z"/>
<path d="M1813 460 c-17 -16 -31 -37 -31 -47 0 -10 -2 -30 -6 -44 -8 -29 15
-48 32 -26 11 15 47 136 41 141 -2 2 -18 -8 -36 -24z"/>
<path d="M2968 235 c-3 -6 -8 -22 -12 -37 -3 -16 -13 -28 -21 -28 -17 0 -104
-52 -105 -62 0 -15 22 -7 65 22 24 17 48 30 53 30 19 0 39 35 33 60 -4 14 -9
20 -13 15z"/>
</g>
</svg>
